<?xml version="1.0" encoding="UTF-8" standalone="no"?>
<!DOCTYPE svg PUBLIC "-//W3C//DTD SVG 1.1//EN"
 "http://www.w3.org/Graphics/SVG/1.1/DTD/svg11.dtd">
<!-- Generated by graphviz version 2.38.0 (20140413.2041)
 -->
<!-- Title: %3 Pages: 1 -->
<svg width="361pt" height="864pt"
 viewBox="0.00 0.00 361.35 864.00" xmlns="http://www.w3.org/2000/svg" xmlns:xlink="http://www.w3.org/1999/xlink">
<g id="graph0" class="graph" transform="scale(0.954696 0.954696) rotate(0) translate(4 901)">
<title>%3</title>
<polygon fill="white" stroke="none" points="-4,4 -4,-901 374.5,-901 374.5,4 -4,4"/>
<!-- 2208147270400 -->
<g id="node1" class="node"><title>2208147270400</title>
<polygon fill="#caff70" stroke="black" points="277,-21 189,-21 189,-0 277,-0 277,-21"/>
<text text-anchor="middle" x="233" y="-7.4" font-family="Times New Roman,serif" font-size="12.00">ViewBackward</text>
</g>
<!-- 2208185213560 -->
<g id="node2" class="node"><title>2208185213560</title>
<polygon fill="lightgrey" stroke="black" points="283.5,-78 182.5,-78 182.5,-57 283.5,-57 283.5,-78"/>
<text text-anchor="middle" x="233" y="-64.4" font-family="Times New Roman,serif" font-size="12.00">SoftmaxBackward</text>
</g>
<!-- 2208185213560&#45;&gt;2208147270400 -->
<g id="edge1" class="edge"><title>2208185213560&#45;&gt;2208147270400</title>
<path fill="none" stroke="black" d="M233,-56.9197C233,-49.9083 233,-40.1442 233,-31.4652"/>
<polygon fill="black" stroke="black" points="236.5,-31.3408 233,-21.3408 229.5,-31.3409 236.5,-31.3408"/>
</g>
<!-- 2208185213840 -->
<g id="node3" class="node"><title>2208185213840</title>
<polygon fill="lightgrey" stroke="black" points="277,-135 189,-135 189,-114 277,-114 277,-135"/>
<text text-anchor="middle" x="233" y="-121.4" font-family="Times New Roman,serif" font-size="12.00">ViewBackward</text>
</g>
<!-- 2208185213840&#45;&gt;2208185213560 -->
<g id="edge2" class="edge"><title>2208185213840&#45;&gt;2208185213560</title>
<path fill="none" stroke="black" d="M233,-113.92C233,-106.908 233,-97.1442 233,-88.4652"/>
<polygon fill="black" stroke="black" points="236.5,-88.3408 233,-78.3408 229.5,-88.3409 236.5,-88.3408"/>
</g>
<!-- 2208185213504 -->
<g id="node4" class="node"><title>2208185213504</title>
<polygon fill="lightgrey" stroke="black" points="283.5,-192 182.5,-192 182.5,-171 283.5,-171 283.5,-192"/>
<text text-anchor="middle" x="233" y="-178.4" font-family="Times New Roman,serif" font-size="12.00">AddmmBackward</text>
</g>
<!-- 2208185213504&#45;&gt;2208185213840 -->
<g id="edge3" class="edge"><title>2208185213504&#45;&gt;2208185213840</title>
<path fill="none" stroke="black" d="M233,-170.92C233,-163.908 233,-154.144 233,-145.465"/>
<polygon fill="black" stroke="black" points="236.5,-145.341 233,-135.341 229.5,-145.341 236.5,-145.341"/>
</g>
<!-- 2208185213616 -->
<g id="node5" class="node"><title>2208185213616</title>
<polygon fill="lightblue" stroke="black" points="170,-262 116,-262 116,-228 170,-228 170,-262"/>
<text text-anchor="middle" x="143" y="-248.4" font-family="Times New Roman,serif" font-size="12.00">fc2.bias</text>
<text text-anchor="middle" x="143" y="-235.4" font-family="Times New Roman,serif" font-size="12.00"> (76)</text>
</g>
<!-- 2208185213616&#45;&gt;2208185213504 -->
<g id="edge4" class="edge"><title>2208185213616&#45;&gt;2208185213504</title>
<path fill="none" stroke="black" d="M166.646,-227.842C180.187,-218.589 197.087,-207.041 210.442,-197.915"/>
<polygon fill="black" stroke="black" points="212.754,-200.574 219.036,-192.042 208.805,-194.794 212.754,-200.574"/>
</g>
<!-- 2208185213336 -->
<g id="node6" class="node"><title>2208185213336</title>
<polygon fill="lightgrey" stroke="black" points="278,-255.5 188,-255.5 188,-234.5 278,-234.5 278,-255.5"/>
<text text-anchor="middle" x="233" y="-241.9" font-family="Times New Roman,serif" font-size="12.00">ReluBackward0</text>
</g>
<!-- 2208185213336&#45;&gt;2208185213504 -->
<g id="edge5" class="edge"><title>2208185213336&#45;&gt;2208185213504</title>
<path fill="none" stroke="black" d="M233,-234.391C233,-225.866 233,-213.139 233,-202.423"/>
<polygon fill="black" stroke="black" points="236.5,-202.245 233,-192.245 229.5,-202.245 236.5,-202.245"/>
</g>
<!-- 2208185213896 -->
<g id="node7" class="node"><title>2208185213896</title>
<polygon fill="lightgrey" stroke="black" points="283.5,-325.5 182.5,-325.5 182.5,-304.5 283.5,-304.5 283.5,-325.5"/>
<text text-anchor="middle" x="233" y="-311.9" font-family="Times New Roman,serif" font-size="12.00">AddmmBackward</text>
</g>
<!-- 2208185213896&#45;&gt;2208185213336 -->
<g id="edge6" class="edge"><title>2208185213896&#45;&gt;2208185213336</title>
<path fill="none" stroke="black" d="M233,-304.257C233,-294.259 233,-278.422 233,-265.782"/>
<polygon fill="black" stroke="black" points="236.5,-265.725 233,-255.725 229.5,-265.725 236.5,-265.725"/>
</g>
<!-- 2208185214008 -->
<g id="node8" class="node"><title>2208185214008</title>
<polygon fill="lightblue" stroke="black" points="171,-402 117,-402 117,-368 171,-368 171,-402"/>
<text text-anchor="middle" x="144" y="-388.4" font-family="Times New Roman,serif" font-size="12.00">fc1.bias</text>
<text text-anchor="middle" x="144" y="-375.4" font-family="Times New Roman,serif" font-size="12.00"> (360)</text>
</g>
<!-- 2208185214008&#45;&gt;2208185213896 -->
<g id="edge7" class="edge"><title>2208185214008&#45;&gt;2208185213896</title>
<path fill="none" stroke="black" d="M165.092,-367.885C179.31,-357.022 197.984,-342.754 212.151,-331.93"/>
<polygon fill="black" stroke="black" points="214.488,-334.549 220.309,-325.696 210.238,-328.987 214.488,-334.549"/>
</g>
<!-- 2208185214064 -->
<g id="node9" class="node"><title>2208185214064</title>
<polygon fill="lightgrey" stroke="black" points="277,-395.5 189,-395.5 189,-374.5 277,-374.5 277,-395.5"/>
<text text-anchor="middle" x="233" y="-381.9" font-family="Times New Roman,serif" font-size="12.00">MulBackward0</text>
</g>
<!-- 2208185214064&#45;&gt;2208185213896 -->
<g id="edge8" class="edge"><title>2208185214064&#45;&gt;2208185213896</title>
<path fill="none" stroke="black" d="M233,-374.257C233,-364.259 233,-348.422 233,-335.782"/>
<polygon fill="black" stroke="black" points="236.5,-335.725 233,-325.725 229.5,-335.725 236.5,-335.725"/>
</g>
<!-- 2208185214232 -->
<g id="node10" class="node"><title>2208185214232</title>
<polygon fill="lightgrey" stroke="black" points="277,-465.5 189,-465.5 189,-444.5 277,-444.5 277,-465.5"/>
<text text-anchor="middle" x="233" y="-451.9" font-family="Times New Roman,serif" font-size="12.00">ViewBackward</text>
</g>
<!-- 2208185214232&#45;&gt;2208185214064 -->
<g id="edge9" class="edge"><title>2208185214232&#45;&gt;2208185214064</title>
<path fill="none" stroke="black" d="M233,-444.257C233,-434.259 233,-418.422 233,-405.782"/>
<polygon fill="black" stroke="black" points="236.5,-405.725 233,-395.725 229.5,-405.725 236.5,-405.725"/>
</g>
<!-- 2208185214344 -->
<g id="node11" class="node"><title>2208185214344</title>
<polygon fill="lightgrey" stroke="black" points="320,-529 146,-529 146,-508 320,-508 320,-529"/>
<text text-anchor="middle" x="233" y="-515.4" font-family="Times New Roman,serif" font-size="12.00">MaxPool2DWithIndicesBackward</text>
</g>
<!-- 2208185214344&#45;&gt;2208185214232 -->
<g id="edge10" class="edge"><title>2208185214344&#45;&gt;2208185214232</title>
<path fill="none" stroke="black" d="M233,-507.891C233,-499.366 233,-486.639 233,-475.923"/>
<polygon fill="black" stroke="black" points="236.5,-475.745 233,-465.745 229.5,-475.745 236.5,-475.745"/>
</g>
<!-- 2208185214456 -->
<g id="node12" class="node"><title>2208185214456</title>
<polygon fill="lightgrey" stroke="black" points="278,-586 188,-586 188,-565 278,-565 278,-586"/>
<text text-anchor="middle" x="233" y="-572.4" font-family="Times New Roman,serif" font-size="12.00">ReluBackward0</text>
</g>
<!-- 2208185214456&#45;&gt;2208185214344 -->
<g id="edge11" class="edge"><title>2208185214456&#45;&gt;2208185214344</title>
<path fill="none" stroke="black" d="M233,-564.92C233,-557.908 233,-548.144 233,-539.465"/>
<polygon fill="black" stroke="black" points="236.5,-539.341 233,-529.341 229.5,-539.341 236.5,-539.341"/>
</g>
<!-- 2208185214568 -->
<g id="node13" class="node"><title>2208185214568</title>
<polygon fill="lightgrey" stroke="black" points="295.5,-643 170.5,-643 170.5,-622 295.5,-622 295.5,-643"/>
<text text-anchor="middle" x="233" y="-629.4" font-family="Times New Roman,serif" font-size="12.00">ThnnConv2DBackward</text>
</g>
<!-- 2208185214568&#45;&gt;2208185214456 -->
<g id="edge12" class="edge"><title>2208185214568&#45;&gt;2208185214456</title>
<path fill="none" stroke="black" d="M233,-621.92C233,-614.908 233,-605.144 233,-596.465"/>
<polygon fill="black" stroke="black" points="236.5,-596.341 233,-586.341 229.5,-596.341 236.5,-596.341"/>
</g>
<!-- 2208185214680 -->
<g id="node14" class="node"><title>2208185214680</title>
<polygon fill="lightgrey" stroke="black" points="174,-706.5 0,-706.5 0,-685.5 174,-685.5 174,-706.5"/>
<text text-anchor="middle" x="87" y="-692.9" font-family="Times New Roman,serif" font-size="12.00">MaxPool2DWithIndicesBackward</text>
</g>
<!-- 2208185214680&#45;&gt;2208185214568 -->
<g id="edge13" class="edge"><title>2208185214680&#45;&gt;2208185214568</title>
<path fill="none" stroke="black" d="M109.813,-685.391C134.348,-675.055 173.544,-658.545 201.121,-646.928"/>
<polygon fill="black" stroke="black" points="202.491,-650.149 210.348,-643.042 199.773,-643.698 202.491,-650.149"/>
</g>
<!-- 2208185214904 -->
<g id="node15" class="node"><title>2208185214904</title>
<polygon fill="lightgrey" stroke="black" points="132,-770 42,-770 42,-749 132,-749 132,-770"/>
<text text-anchor="middle" x="87" y="-756.4" font-family="Times New Roman,serif" font-size="12.00">ReluBackward0</text>
</g>
<!-- 2208185214904&#45;&gt;2208185214680 -->
<g id="edge14" class="edge"><title>2208185214904&#45;&gt;2208185214680</title>
<path fill="none" stroke="black" d="M87,-748.891C87,-740.366 87,-727.639 87,-716.923"/>
<polygon fill="black" stroke="black" points="90.5001,-716.745 87,-706.745 83.5001,-716.745 90.5001,-716.745"/>
</g>
<!-- 2208185215016 -->
<g id="node16" class="node"><title>2208185215016</title>
<polygon fill="lightgrey" stroke="black" points="149.5,-827 24.5,-827 24.5,-806 149.5,-806 149.5,-827"/>
<text text-anchor="middle" x="87" y="-813.4" font-family="Times New Roman,serif" font-size="12.00">ThnnConv2DBackward</text>
</g>
<!-- 2208185215016&#45;&gt;2208185214904 -->
<g id="edge15" class="edge"><title>2208185215016&#45;&gt;2208185214904</title>
<path fill="none" stroke="black" d="M87,-805.92C87,-798.908 87,-789.144 87,-780.465"/>
<polygon fill="black" stroke="black" points="90.5001,-780.341 87,-770.341 83.5001,-780.341 90.5001,-780.341"/>
</g>
<!-- 2208185215128 -->
<g id="node17" class="node"><title>2208185215128</title>
<polygon fill="lightblue" stroke="black" points="81.5,-897 4.5,-897 4.5,-863 81.5,-863 81.5,-897"/>
<text text-anchor="middle" x="43" y="-883.4" font-family="Times New Roman,serif" font-size="12.00">conv1.weight</text>
<text text-anchor="middle" x="43" y="-870.4" font-family="Times New Roman,serif" font-size="12.00"> (18, 3, 5, 5)</text>
</g>
<!-- 2208185215128&#45;&gt;2208185215016 -->
<g id="edge16" class="edge"><title>2208185215128&#45;&gt;2208185215016</title>
<path fill="none" stroke="black" d="M54.5605,-862.842C60.6077,-854.389 68.0248,-844.022 74.2397,-835.335"/>
<polygon fill="black" stroke="black" points="77.2011,-837.211 80.1733,-827.042 71.5081,-833.138 77.2011,-837.211"/>
</g>
<!-- 2208185215184 -->
<g id="node18" class="node"><title>2208185215184</title>
<polygon fill="lightblue" stroke="black" points="164.5,-897 99.5,-897 99.5,-863 164.5,-863 164.5,-897"/>
<text text-anchor="middle" x="132" y="-883.4" font-family="Times New Roman,serif" font-size="12.00">conv1.bias</text>
<text text-anchor="middle" x="132" y="-870.4" font-family="Times New Roman,serif" font-size="12.00"> (18)</text>
</g>
<!-- 2208185215184&#45;&gt;2208185215016 -->
<g id="edge17" class="edge"><title>2208185215184&#45;&gt;2208185215016</title>
<path fill="none" stroke="black" d="M120.177,-862.842C113.992,-854.389 106.406,-844.022 100.05,-835.335"/>
<polygon fill="black" stroke="black" points="102.712,-833.045 93.9819,-827.042 97.0624,-837.179 102.712,-833.045"/>
</g>
<!-- 2208185214736 -->
<g id="node19" class="node"><title>2208185214736</title>
<polygon fill="lightblue" stroke="black" points="273.5,-713 192.5,-713 192.5,-679 273.5,-679 273.5,-713"/>
<text text-anchor="middle" x="233" y="-699.4" font-family="Times New Roman,serif" font-size="12.00">conv2.weight</text>
<text text-anchor="middle" x="233" y="-686.4" font-family="Times New Roman,serif" font-size="12.00"> (48, 18, 5, 5)</text>
</g>
<!-- 2208185214736&#45;&gt;2208185214568 -->
<g id="edge18" class="edge"><title>2208185214736&#45;&gt;2208185214568</title>
<path fill="none" stroke="black" d="M233,-678.842C233,-671.012 233,-661.54 233,-653.282"/>
<polygon fill="black" stroke="black" points="236.5,-653.042 233,-643.042 229.5,-653.042 236.5,-653.042"/>
</g>
<!-- 2208185214792 -->
<g id="node20" class="node"><title>2208185214792</title>
<polygon fill="lightblue" stroke="black" points="356.5,-713 291.5,-713 291.5,-679 356.5,-679 356.5,-713"/>
<text text-anchor="middle" x="324" y="-699.4" font-family="Times New Roman,serif" font-size="12.00">conv2.bias</text>
<text text-anchor="middle" x="324" y="-686.4" font-family="Times New Roman,serif" font-size="12.00"> (48)</text>
</g>
<!-- 2208185214792&#45;&gt;2208185214568 -->
<g id="edge19" class="edge"><title>2208185214792&#45;&gt;2208185214568</title>
<path fill="none" stroke="black" d="M300.091,-678.842C286.268,-669.5 268.983,-657.818 255.42,-648.652"/>
<polygon fill="black" stroke="black" points="257.364,-645.741 247.119,-643.042 253.444,-651.541 257.364,-645.741"/>
</g>
<!-- 2208185214120 -->
<g id="node21" class="node"><title>2208185214120</title>
<polygon fill="lightgrey" stroke="black" points="367.5,-395.5 296.5,-395.5 296.5,-374.5 367.5,-374.5 367.5,-395.5"/>
<text text-anchor="middle" x="332" y="-381.9" font-family="Times New Roman,serif" font-size="12.00">TBackward</text>
</g>
<!-- 2208185214120&#45;&gt;2208185213896 -->
<g id="edge20" class="edge"><title>2208185214120&#45;&gt;2208185213896</title>
<path fill="none" stroke="black" d="M317.816,-374.257C301.477,-363.034 274.426,-344.454 255.271,-331.297"/>
<polygon fill="black" stroke="black" points="257.063,-328.282 246.839,-325.505 253.1,-334.052 257.063,-328.282"/>
</g>
<!-- 2208185214288 -->
<g id="node22" class="node"><title>2208185214288</title>
<polygon fill="lightblue" stroke="black" points="370.5,-472 295.5,-472 295.5,-438 370.5,-438 370.5,-472"/>
<text text-anchor="middle" x="333" y="-458.4" font-family="Times New Roman,serif" font-size="12.00">fc1.weight</text>
<text text-anchor="middle" x="333" y="-445.4" font-family="Times New Roman,serif" font-size="12.00"> (360, 7776)</text>
</g>
<!-- 2208185214288&#45;&gt;2208185214120 -->
<g id="edge21" class="edge"><title>2208185214288&#45;&gt;2208185214120</title>
<path fill="none" stroke="black" d="M332.763,-437.885C332.622,-428.309 332.442,-416.088 332.293,-405.912"/>
<polygon fill="black" stroke="black" points="335.792,-405.842 332.146,-395.895 328.793,-405.945 335.792,-405.842"/>
</g>
<!-- 2208185213168 -->
<g id="node23" class="node"><title>2208185213168</title>
<polygon fill="lightgrey" stroke="black" points="367.5,-255.5 296.5,-255.5 296.5,-234.5 367.5,-234.5 367.5,-255.5"/>
<text text-anchor="middle" x="332" y="-241.9" font-family="Times New Roman,serif" font-size="12.00">TBackward</text>
</g>
<!-- 2208185213168&#45;&gt;2208185213504 -->
<g id="edge22" class="edge"><title>2208185213168&#45;&gt;2208185213504</title>
<path fill="none" stroke="black" d="M316.531,-234.391C300.548,-224.462 275.39,-208.833 256.857,-197.32"/>
<polygon fill="black" stroke="black" points="258.701,-194.346 248.36,-192.042 255.008,-200.292 258.701,-194.346"/>
</g>
<!-- 2208185213952 -->
<g id="node24" class="node"><title>2208185213952</title>
<polygon fill="lightblue" stroke="black" points="364.5,-332 301.5,-332 301.5,-298 364.5,-298 364.5,-332"/>
<text text-anchor="middle" x="333" y="-318.4" font-family="Times New Roman,serif" font-size="12.00">fc2.weight</text>
<text text-anchor="middle" x="333" y="-305.4" font-family="Times New Roman,serif" font-size="12.00"> (76, 360)</text>
</g>
<!-- 2208185213952&#45;&gt;2208185213168 -->
<g id="edge23" class="edge"><title>2208185213952&#45;&gt;2208185213168</title>
<path fill="none" stroke="black" d="M332.763,-297.885C332.622,-288.309 332.442,-276.088 332.293,-265.912"/>
<polygon fill="black" stroke="black" points="335.792,-265.842 332.146,-255.895 328.793,-265.945 335.792,-265.842"/>
</g>
</g>
</svg>
